<svg xmlns="http://www.w3.org/2000/svg" version="1.1" xmlns:xlink="http://www.w3.org/1999/xlink"
  xmlns:svgjs="http://svgjs.dev/svgjs" width="2000" height="1247" viewBox="0 0 2000 1247">
  <g transform="matrix(1,0,0,1,-1.2121212121212466,0.504858299595071)"><svg viewBox="0 0 396 247"
      data-background-color="#ffffff" preserveAspectRatio="xMidYMid meet" height="1247" width="2000"
      xmlns="http://www.w3.org/2000/svg" xmlns:xlink="http://www.w3.org/1999/xlink">
      <g id="tight-bounds" transform="matrix(1,0,0,1,0.2400000000000091,-0.09999999999999432)"><svg
          viewBox="0 0 395.52 247.2" height="247.2" width="395.52">
          <g><svg></svg></g>
          <g><svg viewBox="0 0 395.52 247.2" height="247.2" width="395.52">
              <g transform="matrix(1,0,0,1,75.54432000000001,95.36620761241318)"><svg
                  viewBox="0 0 244.43135999999996 56.46758477517363" height="56.46758477517363"
                  width="244.43135999999996">
                  <g><svg viewBox="0 0 244.43135999999996 56.46758477517363" height="56.46758477517363"
                      width="244.43135999999996">
                      <g><svg viewBox="0 0 407.47577816122515 94.13347390101183" height="56.46758477517363"
                          width="244.43135999999996">
                          <g><svg viewBox="0 0 244.43135999999998 94.13347390101183" height="94.13347390101183"
                              width="244.43135999999998">
                              <g id="textblocktransform"><svg viewBox="0 0 244.43135999999998 94.13347390101183"
                                  height="94.13347390101183" width="244.43135999999998" id="textblock">
                                  <g><svg viewBox="0 0 244.43135999999998 50.771097787259976"
                                      height="50.771097787259976" width="244.43135999999998">
                                      <g transform="matrix(1,0,0,1,0,0)"><svg width="244.43135999999998"
                                          viewBox="0.83 -32.67 160.19 33.28" height="50.771097787259976"
                                          data-palette-color="#262626">
                                          <path
                                            d="M18.14 0.02L18.09 0.1Q17.31 0 15.53 0L15.53 0 12.84 0Q12.18 0 11.65 0.05L11.65 0.05 11.62 0Q11.72-0.17 11.72-0.39 11.72-0.61 11.68-0.85 11.65-1.1 11.47-1.73 11.3-2.37 10.94-3.56L10.94-3.56 9.91-6.84 0.83-32.57Q2.34-32.47 4.69-32.47 7.03-32.47 7.69-32.67L7.69-32.67 15.04-10.47 21.48-32.57Q22.95-32.47 25.1-32.47L25.1-32.47Q28.03-32.47 28.52-32.67L28.52-32.67 19.6-6.91Q19.6-6.91 18.75-4.05L18.75-4.05Q18.04-1.61 18.04-0.89 18.04-0.17 18.14 0.02L18.14 0.02ZM49.56-1.51L49.56-1.51Q46.09 0.37 43.28 0.37 40.48 0.37 38.47-0.16 36.47-0.68 35.08-1.71L35.08-1.71Q32.25-3.78 32.25-7.71L32.25-7.71Q32.25-11.23 35.72-13.57L35.72-13.57Q39.48-16.11 45.92-16.11L45.92-16.11 46.9-16.09Q47.19-16.06 47.56-16.05 47.92-16.04 48.22-15.99L48.22-15.99Q48.02-19.9 44.85-20.56L44.85-20.56Q43.8-20.78 42.61-20.78 41.43-20.78 40.29-20.57 39.16-20.36 38.08-20.02L38.08-20.02Q35.72-19.26 34.69-18.29L34.69-18.29 34.62-18.33 33.88-23.73Q38.21-26 43.33-26L43.33-26Q51.29-26 53.51-20.26L53.51-20.26Q54.22-18.43 54.22-16.14L54.22-16.14 54.22-7.3Q54.22-4.47 56.22-3.44L56.22-3.44 51.8 0.61Q50.41-0.12 49.56-1.51ZM48.24-6.49L48.24-11.6Q47.58-11.72 46.87-11.72L46.87-11.72 45.9-11.72Q40.5-11.72 39.04-9.33L39.04-9.33Q38.6-8.62 38.6-7.84 38.6-7.06 38.88-6.46 39.16-5.86 39.82-5.47L39.82-5.47Q41.09-4.74 43.59-4.74 46.09-4.74 48.26-5.93L48.26-5.93Q48.24-6.2 48.24-6.49L48.24-6.49ZM67.6-17.77L67.6-2.73Q67.6-0.63 67.7 0L67.7 0 61.62 0 61.62-25.51 67.6-25.51 67.6-23.63Q69.67-26 71.96-26 74.24-26 75.56-25.44L75.56-25.44 75.12-18.87 75.02-18.8Q74.16-20.31 71.48-20.31L71.48-20.31Q70.45-20.31 69.39-19.62 68.33-18.92 67.6-17.77L67.6-17.77ZM95.38-1.51L95.38-1.51Q91.91 0.37 89.1 0.37 86.3 0.37 84.29-0.16 82.29-0.68 80.9-1.71L80.9-1.71Q78.07-3.78 78.07-7.71L78.07-7.71Q78.07-11.23 81.54-13.57L81.54-13.57Q85.3-16.11 91.74-16.11L91.74-16.11 92.72-16.09Q93.01-16.06 93.38-16.05 93.74-16.04 94.04-15.99L94.04-15.99Q93.84-19.9 90.67-20.56L90.67-20.56Q89.62-20.78 88.43-20.78 87.25-20.78 86.11-20.57 84.98-20.36 83.9-20.02L83.9-20.02Q81.54-19.26 80.51-18.29L80.51-18.29 80.44-18.33 79.7-23.73Q84.03-26 89.15-26L89.15-26Q97.11-26 99.33-20.26L99.33-20.26Q100.04-18.43 100.04-16.14L100.04-16.14 100.04-7.3Q100.04-4.47 102.04-3.44L102.04-3.44 97.62 0.61Q96.23-0.12 95.38-1.51ZM94.06-6.49L94.06-11.6Q93.4-11.72 92.69-11.72L92.69-11.72 91.72-11.72Q86.32-11.72 84.86-9.33L84.86-9.33Q84.42-8.62 84.42-7.84 84.42-7.06 84.7-6.46 84.98-5.86 85.64-5.47L85.64-5.47Q86.91-4.74 89.41-4.74 91.91-4.74 94.08-5.93L94.08-5.93Q94.06-6.2 94.06-6.49L94.06-6.49ZM114.08-17.07L114.08-3.13Q114.08-0.98 114.27 0L114.27 0 108.14 0 108.14-25.51 114.08-25.51 114.08-23.34Q117.3-26 120.96-26L120.96-26Q124.97-26 127.36-23.28 129.75-20.56 129.75-16.11L129.75-16.11 129.75-6.4Q129.75-2.27 129.87-1.44 129.99-0.61 130.2-0.37 130.41-0.12 130.56 0.07L130.56 0.07 130.51 0.17Q128.53 0 127.63 0L127.63 0 125.92 0Q125.14 0 123.82 0.07L123.82 0.07 123.82-13.23Q123.82-20.39 119.47-20.39L119.47-20.39Q116.25-20.39 114.08-17.07L114.08-17.07ZM135.02-12.62L135.02-12.62Q135.02-15.31 135.94-17.76 136.85-20.21 138.56-22.05L138.56-22.05Q142.3-26 148.25-26L148.25-26Q154.19-26 157.68-22.27L157.68-22.27Q161.02-18.7 161.02-13.01L161.02-13.01Q161.02-7.32 157.58-3.59L157.58-3.59Q153.94 0.37 147.94 0.37L147.94 0.37Q141.74 0.37 138.22-3.52L138.22-3.52Q135.02-7.06 135.02-12.62ZM140.95-12.77L140.95-12.77Q140.95-11.23 141.47-9.79 141.98-8.35 142.93-7.32L142.93-7.32Q144.96-5.1 148.25-5.1L148.25-5.1Q151.31-5.1 153.06-7.28L153.06-7.28Q154.77-9.38 154.77-12.74L154.77-12.74Q154.77-16.16 153.01-18.26L153.01-18.26Q151.13-20.51 147.86-20.51L147.86-20.51Q144.54-20.51 142.66-18.12L142.66-18.12Q140.95-15.92 140.95-12.77Z"
                                            opacity="1" transform="matrix(1,0,0,1,0,0)" fill="#fff"
                                            class="wordmark-text-0" data-fill-palette-color="primary" id="text-0">
                                          </path>
                                        </svg></g>
                                    </svg></g>
                                  <g transform="matrix(1,0,0,1,0,62.75693546848516)"><svg
                                      viewBox="0 0 244.43135999999998 31.376538432526665" height="31.376538432526665"
                                      width="244.43135999999998">
                                      <g transform="matrix(1,0,0,1,0,0)"><svg width="244.43135999999998"
                                          viewBox="3.05 -36.5 366.14 47" height="31.376538432526665"
                                          data-palette-color="#262626">
                                          <path
                                            d="M19.25-9.25L19.25-16.15Q19.25-18.95 17.75-20.48 16.25-22 13.5-22L13.5-22Q10.9-22 9.1-20.88 7.3-19.75 6.45-17.25L6.45-17.25 3.2-19.25Q4.2-22.05 6.9-23.78 9.6-25.5 13.6-25.5L13.6-25.5Q16.3-25.5 18.5-24.58 20.7-23.65 21.98-21.78 23.25-19.9 23.25-16.95L23.25-16.95 23.25-4.85Q23.25-3.05 25.15-3.05L25.15-3.05Q26.1-3.05 27-3.3L27-3.3 26.8-0.15Q25.8 0.35 24.2 0.35L24.2 0.35Q22.75 0.35 21.6-0.2 20.45-0.75 19.8-1.88 19.15-3 19.15-4.7L19.15-4.7 19.15-5.2 20.15-5.05Q19.55-3.1 18.1-1.88 16.65-0.65 14.85-0.08 13.05 0.5 11.3 0.5L11.3 0.5Q9.1 0.5 7.2-0.25 5.3-1 4.17-2.53 3.05-4.05 3.05-6.3L3.05-6.3Q3.05-9.1 4.93-10.93 6.8-12.75 10.15-13.4L10.15-13.4 20.05-15.35 20.05-12.05 12-10.4Q9.55-9.9 8.35-9 7.15-8.1 7.15-6.5L7.15-6.5Q7.15-4.95 8.38-3.98 9.6-3 11.85-3L11.85-3Q13.3-3 14.63-3.38 15.95-3.75 17-4.53 18.05-5.3 18.65-6.48 19.25-7.65 19.25-9.25L19.25-9.25ZM47.2 10.5L43.2 10.5 43.2-25 46.7-25 47.05-18.9 46.5-19.6Q47.15-21.35 48.45-22.68 49.75-24 51.6-24.75 53.45-25.5 55.6-25.5L55.6-25.5Q58.65-25.5 61.22-23.95 63.8-22.4 65.35-19.5 66.9-16.6 66.9-12.5L66.9-12.5Q66.9-8.45 65.32-5.53 63.75-2.6 61.15-1.05 58.55 0.5 55.45 0.5L55.45 0.5Q52.35 0.5 50.02-1.03 47.7-2.55 46.7-4.9L46.7-4.9 47.2-5.65 47.2 10.5ZM55.05-3L55.05-3Q58.75-3 60.82-5.6 62.9-8.2 62.9-12.5L62.9-12.5Q62.9-16.8 60.87-19.4 58.85-22 55.2-22L55.2-22Q52.8-22 51-20.83 49.2-19.65 48.2-17.53 47.2-15.4 47.2-12.5L47.2-12.5Q47.2-9.65 48.17-7.5 49.15-5.35 50.92-4.17 52.7-3 55.05-3ZM88.8 10.5L84.8 10.5 84.8-25 88.3-25 88.65-18.9 88.1-19.6Q88.75-21.35 90.05-22.68 91.35-24 93.2-24.75 95.05-25.5 97.2-25.5L97.2-25.5Q100.25-25.5 102.82-23.95 105.4-22.4 106.95-19.5 108.5-16.6 108.5-12.5L108.5-12.5Q108.5-8.45 106.92-5.53 105.35-2.6 102.75-1.05 100.15 0.5 97.05 0.5L97.05 0.5Q93.95 0.5 91.62-1.03 89.3-2.55 88.3-4.9L88.3-4.9 88.8-5.65 88.8 10.5ZM96.65-3L96.65-3Q100.35-3 102.42-5.6 104.5-8.2 104.5-12.5L104.5-12.5Q104.5-16.8 102.47-19.4 100.45-22 96.8-22L96.8-22Q94.4-22 92.6-20.83 90.8-19.65 89.8-17.53 88.8-15.4 88.8-12.5L88.8-12.5Q88.8-9.65 89.77-7.5 90.75-5.35 92.52-4.17 94.3-3 96.65-3ZM126.2-36.5L130.2-36.5 130.2-6.35Q130.2-4.45 130.9-3.73 131.6-3 133.15-3L133.15-3Q134.15-3 134.8-3.15 135.45-3.3 136.55-3.7L136.55-3.7 135.9-0.2Q135.1 0.15 134.15 0.33 133.2 0.5 132.2 0.5L132.2 0.5Q129.15 0.5 127.67-1.15 126.2-2.8 126.2-6.2L126.2-6.2 126.2-36.5ZM153.95-29.8L153.95-29.8Q152.6-29.8 151.77-30.63 150.95-31.45 150.95-32.8L150.95-32.8Q150.95-34.15 151.77-34.98 152.6-35.8 153.95-35.8L153.95-35.8Q155.3-35.8 156.12-34.98 156.95-34.15 156.95-32.8L156.95-32.8Q156.95-31.45 156.12-30.63 155.3-29.8 153.95-29.8ZM151.95-25L155.95-25 155.95 0 151.95 0 151.95-25ZM185.85-25.5L185.85-25.5Q188.45-25.5 190.42-24.7 192.4-23.9 193.85-22.4 195.3-20.9 196.2-18.85L196.2-18.85 192.4-17.05Q191.6-19.45 189.97-20.73 188.35-22 185.75-22L185.75-22Q183.25-22 181.45-20.88 179.65-19.75 178.7-17.63 177.75-15.5 177.75-12.5L177.75-12.5Q177.75-9.55 178.7-7.4 179.65-5.25 181.45-4.13 183.25-3 185.75-3L185.75-3Q187.7-3 189.12-3.6 190.55-4.2 191.47-5.35 192.4-6.5 192.75-8.15L192.75-8.15 196.45-6.85Q195.6-4.55 194.12-2.9 192.65-1.25 190.57-0.38 188.5 0.5 185.85 0.5L185.85 0.5Q182.35 0.5 179.6-1.05 176.85-2.6 175.3-5.53 173.75-8.45 173.75-12.5L173.75-12.5Q173.75-16.55 175.3-19.48 176.85-22.4 179.6-23.95 182.35-25.5 185.85-25.5ZM228.35-9.25L228.35-16.15Q228.35-18.95 226.85-20.48 225.35-22 222.6-22L222.6-22Q220-22 218.2-20.88 216.4-19.75 215.55-17.25L215.55-17.25 212.3-19.25Q213.3-22.05 216-23.78 218.7-25.5 222.7-25.5L222.7-25.5Q225.4-25.5 227.6-24.58 229.8-23.65 231.07-21.78 232.35-19.9 232.35-16.95L232.35-16.95 232.35-4.85Q232.35-3.05 234.25-3.05L234.25-3.05Q235.2-3.05 236.1-3.3L236.1-3.3 235.9-0.15Q234.9 0.35 233.3 0.35L233.3 0.35Q231.85 0.35 230.7-0.2 229.55-0.75 228.9-1.88 228.25-3 228.25-4.7L228.25-4.7 228.25-5.2 229.25-5.05Q228.65-3.1 227.2-1.88 225.75-0.65 223.95-0.08 222.15 0.5 220.4 0.5L220.4 0.5Q218.2 0.5 216.3-0.25 214.4-1 213.27-2.53 212.15-4.05 212.15-6.3L212.15-6.3Q212.15-9.1 214.02-10.93 215.9-12.75 219.25-13.4L219.25-13.4 229.15-15.35 229.15-12.05 221.1-10.4Q218.65-9.9 217.45-9 216.25-8.1 216.25-6.5L216.25-6.5Q216.25-4.95 217.47-3.98 218.7-3 220.95-3L220.95-3Q222.4-3 223.72-3.38 225.05-3.75 226.1-4.53 227.15-5.3 227.75-6.48 228.35-7.65 228.35-9.25L228.35-9.25ZM254.19-31L258.19-32.1 258.19-6.9Q258.19-5.05 259.24-4.15 260.29-3.25 261.94-3.25L261.94-3.25Q263.39-3.25 264.44-3.75 265.49-4.25 266.34-5.1L266.34-5.1 267.74-1.75Q266.59-0.7 265.02-0.1 263.44 0.5 261.39 0.5L261.39 0.5Q259.49 0.5 257.84-0.18 256.19-0.85 255.22-2.33 254.24-3.8 254.19-6.2L254.19-6.2 254.19-31ZM249.19-25L267.29-25 267.29-21.55 249.19-21.55 249.19-25ZM285.49-29.8L285.49-29.8Q284.14-29.8 283.32-30.63 282.49-31.45 282.49-32.8L282.49-32.8Q282.49-34.15 283.32-34.98 284.14-35.8 285.49-35.8L285.49-35.8Q286.84-35.8 287.67-34.98 288.49-34.15 288.49-32.8L288.49-32.8Q288.49-31.45 287.67-30.63 286.84-29.8 285.49-29.8ZM283.49-25L287.49-25 287.49 0 283.49 0 283.49-25ZM317.39-25.5L317.39-25.5Q320.94-25.5 323.67-23.95 326.39-22.4 327.94-19.48 329.49-16.55 329.49-12.5L329.49-12.5Q329.49-8.45 327.94-5.53 326.39-2.6 323.67-1.05 320.94 0.5 317.39 0.5L317.39 0.5Q313.89 0.5 311.14-1.05 308.39-2.6 306.84-5.53 305.29-8.45 305.29-12.5L305.29-12.5Q305.29-16.55 306.84-19.48 308.39-22.4 311.14-23.95 313.89-25.5 317.39-25.5ZM317.39-22.05L317.39-22.05Q314.84-22.05 313.04-20.9 311.24-19.75 310.27-17.63 309.29-15.5 309.29-12.5L309.29-12.5Q309.29-9.55 310.27-7.4 311.24-5.25 313.04-4.1 314.84-2.95 317.39-2.95L317.39-2.95Q319.94-2.95 321.74-4.1 323.54-5.25 324.52-7.4 325.49-9.55 325.49-12.5L325.49-12.5Q325.49-15.5 324.52-17.63 323.54-19.75 321.74-20.9 319.94-22.05 317.39-22.05ZM351.29 0L347.29 0 347.29-25 350.79-25 351.14-19.4 350.49-19.95Q351.29-21.95 352.64-23.18 353.99-24.4 355.77-24.95 357.54-25.5 359.44-25.5L359.44-25.5Q362.14-25.5 364.34-24.48 366.54-23.45 367.87-21.35 369.19-19.25 369.19-16L369.19-16 369.19 0 365.19 0 365.19-14.6Q365.19-18.75 363.42-20.38 361.64-22 359.04-22L359.04-22Q357.24-22 355.44-21.15 353.64-20.3 352.47-18.4 351.29-16.5 351.29-13.3L351.29-13.3 351.29 0Z"
                                            opacity="1" transform="matrix(1,0,0,1,0,0)" fill="#fff"
                                            class="slogan-text-1" data-fill-palette-color="secondary" id="text-1">
                                          </path>
                                        </svg></g>
                                    </svg></g>
                                </svg></g>
                            </svg></g>
                          <g transform="matrix(1,0,0,1,256.41719768122516,12.648353801229689)"><svg
                              viewBox="0 0 151.05858048 68.83676629855245" height="68.83676629855245"
                              width="151.05858048">
                              <g><svg xmlns="http://www.w3.org/2000/svg" xmlns:xlink="http://www.w3.org/1999/xlink"
                                  version="1.1" x="0" y="0" viewBox="5 29.49387475885969 90 41.012625348283166"
                                  enable-background="new 0 0 100 100" xml:space="preserve" height="68.83676629855245"
                                  width="151.05858048" class="icon-icon-0" data-fill-palette-color="accent" id="icon-0">
                                  <g fill="#262626" data-fill-palette-color="accent">
                                    <path
                                      d="M23.943 30.807L5 50.001l18.942 19.192c1.728 1.751 4.53 1.751 6.258 0.002 1.729-1.75 1.73-4.587 0.002-6.338L18.193 50.695l-3.624 2.289 15.634-15.841c0.864-0.875 1.295-2.021 1.295-3.168 0-1.147-0.433-2.295-1.297-3.17C28.473 29.056 25.671 29.057 23.943 30.807z"
                                      fill="#fff" data-fill-palette-color="accent"></path>
                                    <path
                                      d="M76.057 30.808L95 50.001 76.058 69.193c-1.728 1.751-4.53 1.751-6.258 0.002-1.729-1.75-1.73-4.587-0.002-6.338l12.009-12.161 3.624 2.289L69.796 37.144c-0.864-0.875-1.295-2.021-1.295-3.168 0-1.147 0.433-2.295 1.297-3.17C71.527 29.056 74.329 29.057 76.057 30.808z"
                                      fill="#fff" data-fill-palette-color="accent"></path>
                                    <path
                                      d="M60.899 32.352c-0.419-1.068-1.241-1.978-2.366-2.476-2.249-0.997-4.857 0.028-5.825 2.288l-13.82 32.062c-0.484 1.13-0.467 2.355-0.048 3.422 0.419 1.068 1.241 1.978 2.366 2.476 2.249 0.997 4.857-0.028 5.825-2.288l13.82-32.062C61.335 34.644 61.318 33.419 60.899 32.352z"
                                      fill="#fff" data-fill-palette-color="accent"></path>
                                  </g>
                                </svg></g>
                            </svg></g>
                        </svg></g>
                    </svg></g>
                </svg></g>
              <path
                d="M196.865 89.366L196.865 25.315 393.435 25.315 393.435 221.885 196.865 221.885 196.865 157.834 199.612 157.834 199.612 219.138 390.689 219.138 390.689 28.062 199.612 28.062 199.612 89.366Z"
                fill="#fff" stroke="white" data-fill-palette-color="tertiary"></path>
            </svg></g>
          <defs></defs>
        </svg>
        <rect width="395.52" height="247.2" fill="none" stroke="none" visibility="hidden"></rect>
      </g>
    </svg></g>
</svg>