<svg xmlns="http://www.w3.org/2000/svg" version="1.1" xmlns:xlink="http://www.w3.org/1999/xlink"
  xmlns:svgjs="http://svgjs.dev/svgjs" width="2000" height="1247" viewBox="0 0 2000 1247">
  <g transform="matrix(1,0,0,1,-1.2121212121211329,0.504858299595071)"><svg viewBox="0 0 396 247"
      data-background-color="#ffffff" preserveAspectRatio="xMidYMid meet" height="1247" width="2000"
      xmlns="http://www.w3.org/2000/svg" xmlns:xlink="http://www.w3.org/1999/xlink">
      <g id="tight-bounds" transform="matrix(1,0,0,1,0.2400000000000091,-0.09999999999999432)"><svg
          viewBox="0 0 395.52 247.2" height="247.2" width="395.52">
          <g><svg></svg></g>
          <g><svg viewBox="0 0 395.52 247.2" height="247.2" width="395.52">
              <g transform="matrix(1,0,0,1,75.54432,93.2616080736241)"><svg
                  viewBox="0 0 244.43135999999998 60.676783852751775" height="60.676783852751775"
                  width="244.43135999999998">
                  <g><svg viewBox="0 0 244.43135999999998 60.676783852751775" height="60.676783852751775"
                      width="244.43135999999998">
                      <g><svg viewBox="0 0 408.39838617332026 101.37938357685039" height="60.676783852751775"
                          width="244.43135999999998">
                          <g transform="matrix(1,0,0,1,163.96702617332028,0)"><svg
                              viewBox="0 0 244.43135999999998 101.37938357685039" height="101.37938357685039"
                              width="244.43135999999998">
                              <g id="textblocktransform"><svg viewBox="0 0 244.43135999999998 101.37938357685039"
                                  height="101.37938357685039" width="244.43135999999998" id="textblock">
                                  <g><svg viewBox="0 0 244.43135999999998 54.67919523085914" height="54.67919523085914"
                                      width="244.43135999999998">
                                      <g transform="matrix(1,0,0,1,0,0)"><svg width="244.43135999999998"
                                          viewBox="3.42 -36.89 167.08 37.38" height="54.67919523085914"
                                          data-palette-color="#3b82f6">
                                          <path
                                            d="M15.5 0L3.42-34.69 8.35-34.69 18.26-4.39 28.17-34.69 32.74-34.69 20.65 0 15.5 0ZM46.58-24.58L46.58-24.58Q49.27-24.58 51.13-23.96 53-23.34 54.01-22.14 55.03-20.95 55.47-19.48 55.91-18.02 55.91-16.11L55.91-16.11 55.91 0 53.07 0 52.15-2.2Q49.19 0.49 45.36 0.49L45.36 0.49Q41.94 0.49 39.57-1.57 37.2-3.64 37.2-6.4L37.2-6.4Q37.2-7.86 37.74-9.03 38.28-10.21 39.29-10.99 40.31-11.77 41.6-12.32 42.89-12.87 44.61-13.16 46.34-13.45 48.07-13.57 49.8-13.7 51.88-13.7L51.88-13.7 51.88-15.6Q51.88-16.43 51.82-17.04 51.76-17.65 51.41-18.51 51.07-19.36 50.49-19.91 49.9-20.46 48.73-20.86 47.56-21.26 45.94-21.26L45.94-21.26Q43.45-21.26 39.5-20.17L39.5-20.17 38.74-23.1Q42.75-24.58 46.58-24.58ZM51.88-5.13L51.88-10.67 50.39-10.67Q49-10.67 47.97-10.62 46.95-10.57 45.57-10.34 44.19-10.11 43.31-9.69 42.43-9.28 41.81-8.48 41.18-7.69 41.18-6.59L41.18-6.59Q41.18-5.05 42.73-3.86 44.28-2.66 46.43-2.66L46.43-2.66Q49.58-2.66 51.88-5.13L51.88-5.13ZM64.69 0L64.69-24.12 67.5-24.12 68.38-22.07Q73.04-24.61 76.87-24.61L76.87-24.61Q78.85-24.61 80.32-23.99 81.78-23.36 82.59-22.42 83.39-21.48 83.87-20.06 84.35-18.63 84.48-17.33 84.61-16.04 84.61-14.38L84.61-14.38 84.61 0 80.61 0 80.61-14.65Q80.61-21 75.14-21L75.14-21Q72.31-21 68.7-19.12L68.7-19.12 68.7 0 64.69 0ZM101.38-24.58L101.38-24.58Q104.07-24.58 105.94-23.96 107.81-23.34 108.82-22.14 109.83-20.95 110.27-19.48 110.71-18.02 110.71-16.11L110.71-16.11 110.71 0 107.88 0 106.95-2.2Q104 0.49 100.16 0.49L100.16 0.49Q96.75 0.49 94.38-1.57 92.01-3.64 92.01-6.4L92.01-6.4Q92.01-7.86 92.55-9.03 93.08-10.21 94.1-10.99 95.11-11.77 96.4-12.32 97.7-12.87 99.42-13.16 101.14-13.45 102.87-13.57 104.61-13.7 106.68-13.7L106.68-13.7 106.68-15.6Q106.68-16.43 106.62-17.04 106.56-17.65 106.22-18.51 105.88-19.36 105.29-19.91 104.7-20.46 103.53-20.86 102.36-21.26 100.75-21.26L100.75-21.26Q98.26-21.26 94.3-20.17L94.3-20.17 93.55-23.1Q97.55-24.58 101.38-24.58ZM106.68-5.13L106.68-10.67 105.19-10.67Q103.8-10.67 102.78-10.62 101.75-10.57 100.37-10.34 98.99-10.11 98.11-9.69 97.23-9.28 96.61-8.48 95.99-7.69 95.99-6.59L95.99-6.59Q95.99-5.05 97.54-3.86 99.09-2.66 101.24-2.66L101.24-2.66Q104.39-2.66 106.68-5.13L106.68-5.13ZM118.28-11.65L118.28-11.65Q118.28-14.77 119.16-17.26 120.03-19.75 121.57-21.34 123.11-22.92 125.17-23.77 127.24-24.61 129.63-24.61L129.63-24.61Q132.51-24.61 135.46-23.32L135.46-23.32 135.46-36.89 139.47-36.89 139.47 0 136.68 0 136.03-1.51Q132.63 0.49 128.95 0.49L128.95 0.49Q127.43 0.49 125.99 0.12 124.55-0.24 123.13-1.15 121.72-2.05 120.66-3.41 119.59-4.76 118.94-6.88 118.28-9.01 118.28-11.65ZM130.26-2.81L130.26-2.81Q132.92-2.81 135.46-4.17L135.46-4.17 135.46-20.29Q132.85-21.46 130.21-21.46L130.21-21.46Q129.09-21.46 128.04-21.22 126.99-20.97 125.89-20.34 124.79-19.7 124-18.7 123.21-17.7 122.7-16.05 122.18-14.4 122.18-12.28L122.18-12.28Q122.18-10.08 122.72-8.36 123.26-6.64 124.09-5.62 124.92-4.59 126.04-3.93 127.16-3.27 128.19-3.04 129.21-2.81 130.26-2.81ZM159.02-24.58L159.02-24.58Q164.03-24.58 167.26-21.39 170.5-18.19 170.5-12.55L170.5-12.55Q170.5-6.57 167.19-3.04 163.88 0.49 158.63 0.49L158.63 0.49Q153.63 0.49 150.45-2.82 147.28-6.13 147.28-11.79L147.28-11.79Q147.28-17.63 150.51-21.11 153.75-24.58 159.02-24.58ZM158.68-21.17L158.68-21.17Q155.68-21.17 153.43-18.85 151.18-16.53 151.18-12.48L151.18-12.48Q151.18-8.45 153.38-5.69 155.58-2.93 159.07-2.93L159.07-2.93Q162.29-2.93 164.44-5.37 166.59-7.81 166.59-11.74L166.59-11.74Q166.59-13.99 165.89-15.82 165.2-17.65 164.06-18.8 162.93-19.95 161.54-20.56 160.14-21.17 158.68-21.17Z"
                                            opacity="1" transform="matrix(1,0,0,1,0,0)" fill="#fff"
                                            class="wordmark-text-0" data-fill-palette-color="primary" id="text-0">
                                          </path>
                                        </svg></g>
                                    </svg></g>
                                  <g transform="matrix(1,0,0,1,0,67.58764092417945)"><svg
                                      viewBox="0 0 244.43135999999998 33.79174265267095" height="33.79174265267095"
                                      width="244.43135999999998">
                                      <g transform="matrix(1,0,0,1,0,0)"><svg width="244.43135999999998"
                                          viewBox="2.55 -35 325.87 45.05" height="33.79174265267095"
                                          data-palette-color="#3b82f6">
                                          <path
                                            d="M15.4-24.95L15.4-24.95Q18.1-24.95 19.98-24.23 21.85-23.5 22.8-21.8 23.75-20.1 23.75-17.15L23.75-17.15 23.75 0 20.4 0 19.75-5.3 19.45-5.85 19.45-17.15Q19.45-19.4 18.43-20.38 17.4-21.35 14.5-21.35L14.5-21.35Q12.6-21.35 9.73-21.15 6.85-20.95 4.05-20.7L4.05-20.7 3.65-23.85Q5.35-24.15 7.38-24.4 9.4-24.65 11.5-24.8 13.6-24.95 15.4-24.95ZM9.3-15L21.75-15 21.7-11.8 10.05-11.75Q8.3-11.7 7.6-10.83 6.9-9.95 6.9-8.4L6.9-8.4 6.9-6.85Q6.9-4.95 7.8-4.08 8.7-3.2 10.7-3.2L10.7-3.2Q12.1-3.2 13.88-3.73 15.65-4.25 17.45-5.35 19.25-6.45 20.75-8.15L20.75-8.15 20.75-5Q20.2-4.3 19.18-3.38 18.15-2.45 16.73-1.58 15.3-0.7 13.58-0.13 11.85 0.45 9.85 0.45L9.85 0.45Q7.7 0.45 6.05-0.33 4.4-1.1 3.48-2.63 2.55-4.15 2.55-6.35L2.55-6.35 2.55-9Q2.55-11.85 4.33-13.43 6.1-15 9.3-15L9.3-15ZM53.17-24.95L53.17-24.95Q57.62-24.95 59.57-21.68 61.52-18.4 61.52-12.05L61.52-12.05Q61.52-7.35 60.52-4.58 59.52-1.8 57.49-0.6 55.47 0.6 52.32 0.6L52.32 0.6Q49.92 0.6 47.59-0.05 45.27-0.7 43.07-2.05L43.07-2.05 43.32-4.6Q45.67-3.95 47.47-3.53 49.27-3.1 51.27-3.1L51.27-3.1Q53.42-3.1 54.69-3.85 55.97-4.6 56.57-6.55 57.17-8.5 57.17-12.05L57.17-12.05Q57.17-15.5 56.62-17.5 56.07-19.5 54.89-20.38 53.72-21.25 51.77-21.25L51.77-21.25Q49.77-21.25 47.82-20.3 45.87-19.35 43.27-17.4L43.27-17.4 42.87-20.25Q44.22-21.7 45.92-22.75 47.62-23.8 49.49-24.38 51.37-24.95 53.17-24.95ZM39.22-24.35L42.72-24.35 43.17-19.3 43.47-18.65 43.47-3.05 43.27-2.45Q43.42-1.05 43.44 0.25 43.47 1.55 43.47 3L43.47 3 43.47 10.05 39.22 10.05 39.22-24.35ZM90.03-24.95L90.03-24.95Q94.48-24.95 96.43-21.68 98.38-18.4 98.38-12.05L98.38-12.05Q98.38-7.35 97.38-4.58 96.38-1.8 94.36-0.6 92.33 0.6 89.18 0.6L89.18 0.6Q86.78 0.6 84.46-0.05 82.13-0.7 79.93-2.05L79.93-2.05 80.18-4.6Q82.53-3.95 84.33-3.53 86.13-3.1 88.13-3.1L88.13-3.1Q90.28-3.1 91.56-3.85 92.83-4.6 93.43-6.55 94.03-8.5 94.03-12.05L94.03-12.05Q94.03-15.5 93.48-17.5 92.93-19.5 91.76-20.38 90.58-21.25 88.63-21.25L88.63-21.25Q86.63-21.25 84.68-20.3 82.73-19.35 80.13-17.4L80.13-17.4 79.73-20.25Q81.08-21.7 82.78-22.75 84.48-23.8 86.36-24.38 88.23-24.95 90.03-24.95ZM76.08-24.35L79.58-24.35 80.03-19.3 80.33-18.65 80.33-3.05 80.13-2.45Q80.28-1.05 80.31 0.25 80.33 1.55 80.33 3L80.33 3 80.33 10.05 76.08 10.05 76.08-24.35ZM113-35L117.25-35 117.2-6.7Q117.2-5.1 118.08-4.28 118.95-3.45 120.55-3.45L120.55-3.45 122.9-3.45 123.4-0.2Q122.95 0 122.13 0.15 121.3 0.3 120.43 0.38 119.55 0.45 118.95 0.45L118.95 0.45Q116.25 0.45 114.63-1.15 113-2.75 113-5.75L113-5.75 113-35ZM135.87-24.35L140.07-24.35 140.07 0 135.87 0 135.87-24.35ZM136.97-34.7L138.97-34.7Q140.27-34.7 140.27-33.4L140.27-33.4 140.27-30.55Q140.27-29.25 138.97-29.25L138.97-29.25 136.97-29.25Q135.67-29.25 135.67-30.55L135.67-30.55 135.67-33.4Q135.67-34.7 136.97-34.7L136.97-34.7ZM166.33-24.95L166.33-24.95Q167.43-24.95 168.78-24.85 170.13-24.75 171.56-24.5 172.98-24.25 174.18-23.8L174.18-23.8 173.63-21.05Q171.98-21.2 170.16-21.28 168.33-21.35 167.03-21.35L167.03-21.35Q164.13-21.35 162.43-20.55 160.73-19.75 159.98-17.75 159.23-15.75 159.23-12.2L159.23-12.2Q159.23-8.65 159.98-6.63 160.73-4.6 162.43-3.8 164.13-3 167.03-3L167.03-3Q167.78-3 168.98-3.05 170.18-3.1 171.56-3.2 172.93-3.3 174.18-3.5L174.18-3.5 174.63-0.65Q172.78 0 170.61 0.3 168.43 0.6 166.28 0.6L166.28 0.6Q162.08 0.6 159.53-0.65 156.98-1.9 155.86-4.7 154.73-7.5 154.73-12.2L154.73-12.2Q154.73-16.9 155.88-19.7 157.03-22.5 159.58-23.73 162.13-24.95 166.33-24.95ZM199.75-24.95L199.75-24.95Q202.45-24.95 204.33-24.23 206.2-23.5 207.15-21.8 208.1-20.1 208.1-17.15L208.1-17.15 208.1 0 204.75 0 204.1-5.3 203.8-5.85 203.8-17.15Q203.8-19.4 202.78-20.38 201.75-21.35 198.85-21.35L198.85-21.35Q196.95-21.35 194.08-21.15 191.2-20.95 188.4-20.7L188.4-20.7 188-23.85Q189.7-24.15 191.73-24.4 193.75-24.65 195.85-24.8 197.95-24.95 199.75-24.95ZM193.65-15L206.1-15 206.05-11.8 194.4-11.75Q192.65-11.7 191.95-10.83 191.25-9.95 191.25-8.4L191.25-8.4 191.25-6.85Q191.25-4.95 192.15-4.08 193.05-3.2 195.05-3.2L195.05-3.2Q196.45-3.2 198.23-3.73 200-4.25 201.8-5.35 203.6-6.45 205.1-8.15L205.1-8.15 205.1-5Q204.55-4.3 203.53-3.38 202.5-2.45 201.08-1.58 199.65-0.7 197.93-0.13 196.2 0.45 194.2 0.45L194.2 0.45Q192.05 0.45 190.4-0.33 188.75-1.1 187.83-2.63 186.9-4.15 186.9-6.35L186.9-6.35 186.9-9Q186.9-11.85 188.68-13.43 190.45-15 193.65-15L193.65-15ZM225.42-31.55L229.67-31.55 229.67-6.7Q229.67-4.95 230.42-4.2 231.17-3.45 232.97-3.45L232.97-3.45 236.67-3.45 237.17-0.2Q236.37 0 235.32 0.15 234.27 0.3 233.27 0.38 232.27 0.45 231.67 0.45L231.67 0.45Q228.62 0.45 227.02-1.25 225.42-2.95 225.42-6.15L225.42-6.15 225.42-31.55ZM225.82-24.35L237.42-24.35 237.42-21 221.02-21 221.02-24.1 225.82-24.35ZM250.68-24.35L254.88-24.35 254.88 0 250.68 0 250.68-24.35ZM251.78-34.7L253.78-34.7Q255.08-34.7 255.08-33.4L255.08-33.4 255.08-30.55Q255.08-29.25 253.78-29.25L253.78-29.25 251.78-29.25Q250.48-29.25 250.48-30.55L250.48-30.55 250.48-33.4Q250.48-34.7 251.78-34.7L251.78-34.7ZM281.05-24.95L281.05-24.95Q285.25-24.95 287.78-23.7 290.3-22.45 291.4-19.63 292.5-16.8 292.5-12.15L292.5-12.15Q292.5-7.5 291.4-4.67 290.3-1.85 287.78-0.6 285.25 0.65 281.05 0.65L281.05 0.65Q276.9 0.65 274.38-0.6 271.85-1.85 270.73-4.67 269.6-7.5 269.6-12.15L269.6-12.15Q269.6-16.8 270.73-19.63 271.85-22.45 274.38-23.7 276.9-24.95 281.05-24.95ZM281.05-21.35L281.05-21.35Q278.4-21.35 276.88-20.53 275.35-19.7 274.7-17.7 274.05-15.7 274.05-12.15L274.05-12.15Q274.05-8.6 274.7-6.6 275.35-4.6 276.88-3.78 278.4-2.95 281.05-2.95L281.05-2.95Q283.7-2.95 285.25-3.78 286.8-4.6 287.45-6.6 288.1-8.6 288.1-12.15L288.1-12.15Q288.1-15.7 287.45-17.7 286.8-19.7 285.25-20.53 283.7-21.35 281.05-21.35ZM321.82-24.95L321.82-24.95Q328.42-24.95 328.42-18.25L328.42-18.25 328.42 0 324.17 0 324.17-17.05Q324.17-19.5 323.37-20.43 322.57-21.35 320.67-21.35L320.67-21.35Q318.42-21.35 316.17-20.25 313.92-19.15 310.82-17.25L310.82-17.25 310.62-20.3Q313.47-22.5 316.27-23.73 319.07-24.95 321.82-24.95ZM307.02-24.35L310.62-24.35 310.97-19.7 311.27-18.95 311.27 0 307.02 0 307.02-24.35Z"
                                            opacity="1" transform="matrix(1,0,0,1,0,0)" fill="#fff"
                                            class="slogan-text-1" data-fill-palette-color="secondary" id="text-1">
                                          </path>
                                        </svg></g>
                                    </svg></g>
                                </svg></g>
                            </svg></g>
                          <g transform="matrix(1,0,0,1,0,16.27130863914897)"><svg
                              viewBox="0 0 151.05858048 68.83676629855245" height="68.83676629855245"
                              width="151.05858048">
                              <g><svg xmlns="http://www.w3.org/2000/svg" xmlns:xlink="http://www.w3.org/1999/xlink"
                                  version="1.1" x="0" y="0" viewBox="5 29.49387475885969 90 41.012625348283166"
                                  enable-background="new 0 0 100 100" xml:space="preserve" height="68.83676629855245"
                                  width="151.05858048" class="icon-icon-0" data-fill-palette-color="accent" id="icon-0">
                                  <g fill="#3b82f6" data-fill-palette-color="accent">
                                    <path
                                      d="M23.943 30.807L5 50.001l18.942 19.192c1.728 1.751 4.53 1.751 6.258 0.002 1.729-1.75 1.73-4.587 0.002-6.338L18.193 50.695l-3.624 2.289 15.634-15.841c0.864-0.875 1.295-2.021 1.295-3.168 0-1.147-0.433-2.295-1.297-3.17C28.473 29.056 25.671 29.057 23.943 30.807z"
                                      fill="#fff" data-fill-palette-color="accent"></path>
                                    <path
                                      d="M76.057 30.808L95 50.001 76.058 69.193c-1.728 1.751-4.53 1.751-6.258 0.002-1.729-1.75-1.73-4.587-0.002-6.338l12.009-12.161 3.624 2.289L69.796 37.144c-0.864-0.875-1.295-2.021-1.295-3.168 0-1.147 0.433-2.295 1.297-3.17C71.527 29.056 74.329 29.057 76.057 30.808z"
                                      fill="#fff" data-fill-palette-color="accent"></path>
                                    <path
                                      d="M60.899 32.352c-0.419-1.068-1.241-1.978-2.366-2.476-2.249-0.997-4.857 0.028-5.825 2.288l-13.82 32.062c-0.484 1.13-0.467 2.355-0.048 3.422 0.419 1.068 1.241 1.978 2.366 2.476 2.249 0.997 4.857-0.028 5.825-2.288l13.82-32.062C61.335 34.644 61.318 33.419 60.899 32.352z"
                                      fill="#fff" data-fill-palette-color="accent"></path>
                                  </g>
                                </svg></g>
                            </svg></g>
                        </svg></g>
                    </svg></g>
                </svg></g>
              <g>
                <path
                  d="M0 123.6c0-68.262 55.338-123.6 123.6-123.6 56.397 0 103.972 37.772 118.807 89.399l-1.536 0c-14.791-50.801-61.695-87.923-117.271-87.923-67.447 0-122.124 54.677-122.124 122.124 0 67.447 54.677 122.124 122.124 122.124 55.575 0 102.48-37.122 117.271-87.923l1.536 0c-14.835 51.626-62.41 89.399-118.807 89.399-68.262 0-123.6-55.338-123.6-123.6z"
                  fill="#fff" stroke="#fff" data-fill-palette-color="tertiary"></path>
              </g>
            </svg></g>
          <defs></defs>
        </svg>
        <rect width="395.52" height="247.2" fill="none" stroke="none" visibility="hidden"></rect>
      </g>
    </svg></g>
</svg>