<svg>

  <symbol id="list" xmlns="http://www.w3.org/2000/svg" height="100%" width="100%" viewBox="0 -960 960 960">
    <path
      d="M320-600q-17 0-28.5-11.5T280-640q0-17 11.5-28.5T320-680h480q17 0 28.5 11.5T840-640q0 17-11.5 28.5T800-600H320Zm0 160q-17 0-28.5-11.5T280-480q0-17 11.5-28.5T320-520h480q17 0 28.5 11.5T840-480q0 17-11.5 28.5T800-440H320Zm0 160q-17 0-28.5-11.5T280-320q0-17 11.5-28.5T320-360h480q17 0 28.5 11.5T840-320q0 17-11.5 28.5T800-280H320ZM160-600q-17 0-28.5-11.5T120-640q0-17 11.5-28.5T160-680q17 0 28.5 11.5T200-640q0 17-11.5 28.5T160-600Zm0 160q-17 0-28.5-11.5T120-480q0-17 11.5-28.5T160-520q17 0 28.5 11.5T200-480q0 17-11.5 28.5T160-440Zm0 160q-17 0-28.5-11.5T120-320q0-17 11.5-28.5T160-360q17 0 28.5 11.5T200-320q0 17-11.5 28.5T160-280Z" />
  </symbol>

  <symbol id="logout" xmlns="http://www.w3.org/2000/svg" height="100%" width="100%" viewBox="0 -960 960 960">
    <path
      d="M200-120q-33 0-56.5-23.5T120-200v-560q0-33 23.5-56.5T200-840h240q17 0 28.5 11.5T480-800q0 17-11.5 28.5T440-760H200v560h240q17 0 28.5 11.5T480-160q0 17-11.5 28.5T440-120H200Zm487-320H400q-17 0-28.5-11.5T360-480q0-17 11.5-28.5T400-520h287l-75-75q-11-11-11-27t11-28q11-12 28-12.5t29 11.5l143 143q12 12 12 28t-12 28L669-309q-12 12-28.5 11.5T612-310q-11-12-10.5-28.5T613-366l74-74Z" />
  </symbol>

  <symbol id="add" xmlns="http://www.w3.org/2000/svg" height="100%" width="100%" viewBox="0 -960 960 960">
    <path
      d="M440-440H240q-17 0-28.5-11.5T200-480q0-17 11.5-28.5T240-520h200v-200q0-17 11.5-28.5T480-760q17 0 28.5 11.5T520-720v200h200q17 0 28.5 11.5T760-480q0 17-11.5 28.5T720-440H520v200q0 17-11.5 28.5T480-200q-17 0-28.5-11.5T440-240v-200Z" />
  </symbol>

  <symbol id="edit" xmlns="http://www.w3.org/2000/svg" height="100%" width="100%" viewBox="0 -960 960 960">
    <path
      d="M200-200h57l391-391-57-57-391 391v57Zm-40 80q-17 0-28.5-11.5T120-160v-97q0-16 6-30.5t17-25.5l505-504q12-11 26.5-17t30.5-6q16 0 31 6t26 18l55 56q12 11 17.5 26t5.5 30q0 16-5.5 30.5T817-647L313-143q-11 11-25.5 17t-30.5 6h-97Zm600-584-56-56 56 56Zm-141 85-28-29 57 57-29-28Z" />
  </symbol>

  <symbol id="delete" xmlns="http://www.w3.org/2000/svg" height="100%" width="100%" viewBox="0 -960 960 960">
    <path
      d="M280-120q-33 0-56.5-23.5T200-200v-520q-17 0-28.5-11.5T160-760q0-17 11.5-28.5T200-800h160q0-17 11.5-28.5T400-840h160q17 0 28.5 11.5T600-800h160q17 0 28.5 11.5T800-760q0 17-11.5 28.5T760-720v520q0 33-23.5 56.5T680-120H280Zm400-600H280v520h400v-520ZM400-280q17 0 28.5-11.5T440-320v-280q0-17-11.5-28.5T400-640q-17 0-28.5 11.5T360-600v280q0 17 11.5 28.5T400-280Zm160 0q17 0 28.5-11.5T600-320v-280q0-17-11.5-28.5T560-640q-17 0-28.5 11.5T520-600v280q0 17 11.5 28.5T560-280ZM280-720v520-520Z" />
  </symbol>

  <symbol id="settings" xmlns="http://www.w3.org/2000/svg" height="100%" width="100%" viewBox="0 -960 960 960">
    <path
      d="M405-80q-15 0-26-10t-13-25l-12-93q-13-5-24.5-12T307-235l-87 36q-14 6-28 1.5T170-215L96-344q-8-13-5-28t15-24l75-57q-1-7-1-13.5v-27q0-6.5 1-13.5l-75-57q-12-9-15-24t5-28l74-129q8-13 22-17.5t28 1.5l87 36q11-8 23-15t24-12l12-93q2-15 13-25t26-10h150q15 0 26 10t13 25l12 93q13 5 24.5 12t22.5 15l87-36q14-6 28-1.5t22 17.5l74 129q8 13 5 28t-15 24l-75 57q1 7 1 13.5v27q0 6.5-2 13.5l75 57q12 9 15 24t-5 28l-74 128q-8 13-22.5 18t-28.5-1l-85-36q-11 8-23 15t-24 12l-12 93q-2 15-13 25t-26 10H405Zm35-80h79l14-106q31-8 57.5-23.5T639-327l99 41 39-68-86-65q5-14 7-29.5t2-31.5q0-16-2-31.5t-7-29.5l86-65-39-68-99 42q-22-23-48.5-38.5T533-694l-13-106h-79l-14 106q-31 8-57.5 23.5T321-633l-99-41-39 68 86 64q-5 15-7 30t-2 32q0 16 2 31t7 30l-86 65 39 68 99-42q22 23 48.5 38.5T427-266l13 106Zm42-180q58 0 99-41t41-99q0-58-41-99t-99-41q-59 0-99.5 41T342-480q0 58 40.5 99t99.5 41Zm-2-140Z" />
  </symbol>

  <symbol id="user" xmlns="http://www.w3.org/2000/svg" height="100%" width="100%" viewBox="0 -960 960 960">
    <path
      d="M234-276q51-39 114-61.5T480-360q69 0 132 22.5T726-276q35-41 54.5-93T800-480q0-133-93.5-226.5T480-800q-133 0-226.5 93.5T160-480q0 59 19.5 111t54.5 93Zm246-164q-59 0-99.5-40.5T340-580q0-59 40.5-99.5T480-720q59 0 99.5 40.5T620-580q0 59-40.5 99.5T480-440Zm0 360q-83 0-156-31.5T197-197q-54-54-85.5-127T80-480q0-83 31.5-156T197-763q54-54 127-85.5T480-880q83 0 156 31.5T763-763q54 54 85.5 127T880-480q0 83-31.5 156T763-197q-54 54-127 85.5T480-80Zm0-80q53 0 100-15.5t86-44.5q-39-29-86-44.5T480-280q-53 0-100 15.5T294-220q39 29 86 44.5T480-160Zm0-360q26 0 43-17t17-43q0-26-17-43t-43-17q-26 0-43 17t-17 43q0 26 17 43t43 17Zm0-60Zm0 360Z" />
  </symbol>

  <symbol id="note" xmlns="http://www.w3.org/2000/svg" height="100%" width="100%" viewBox="0 -960 960 960">
    <path
      d="M240-80q-33 0-56.5-23.5T160-160v-640q0-33 23.5-56.5T240-880h287q16 0 30.5 6t25.5 17l194 194q11 11 17 25.5t6 30.5v447q0 33-23.5 56.5T720-80H240Zm280-560v-160H240v640h480v-440H560q-17 0-28.5-11.5T520-640ZM240-800v200-200 640-640Z" />
  </symbol>

  <symbol id="description" xmlns="http://www.w3.org/2000/svg" height="100%" width="100%" viewBox="0 -960 960 960">
    <path
      d="M360-240h240q17 0 28.5-11.5T640-280q0-17-11.5-28.5T600-320H360q-17 0-28.5 11.5T320-280q0 17 11.5 28.5T360-240Zm0-160h240q17 0 28.5-11.5T640-440q0-17-11.5-28.5T600-480H360q-17 0-28.5 11.5T320-440q0 17 11.5 28.5T360-400ZM240-80q-33 0-56.5-23.5T160-160v-640q0-33 23.5-56.5T240-880h287q16 0 30.5 6t25.5 17l194 194q11 11 17 25.5t6 30.5v447q0 33-23.5 56.5T720-80H240Zm280-560v-160H240v640h480v-440H560q-17 0-28.5-11.5T520-640ZM240-800v200-200 640-640Z" />
  </symbol>

  <symbol id="assists" xmlns="http://www.w3.org/2000/svg" height="100%" width="100%" viewBox="0 -960 960 960">
    <path
      d="m438-342 139-139q12-12 29-12t29 12q12 12 12 29t-12 29L466-254q-12 12-28 12t-28-12l-85-85q-12-12-12-29t12-29q12-12 29-12t29 12l55 55ZM200-80q-33 0-56.5-23.5T120-160v-560q0-33 23.5-56.5T200-800h40v-40q0-17 11.5-28.5T280-880q17 0 28.5 11.5T320-840v40h320v-40q0-17 11.5-28.5T680-880q17 0 28.5 11.5T720-840v40h40q33 0 56.5 23.5T840-720v560q0 33-23.5 56.5T760-80H200Zm0-80h560v-400H200v400Zm0-480h560v-80H200v80Zm0 0v-80 80Z" />
  </symbol>

  <symbol id="home" xmlns="http://www.w3.org/2000/svg" height="100%" width="100%" viewBox="0 -960 960 960">
    <path
      d="M240-200h120v-200q0-17 11.5-28.5T400-440h160q17 0 28.5 11.5T600-400v200h120v-360L480-740 240-560v360Zm-80 0v-360q0-19 8.5-36t23.5-28l240-180q21-16 48-16t48 16l240 180q15 11 23.5 28t8.5 36v360q0 33-23.5 56.5T720-120H560q-17 0-28.5-11.5T520-160v-200h-80v200q0 17-11.5 28.5T400-120H240q-33 0-56.5-23.5T160-200Zm320-270Z" />
  </symbol>

  <symbol id="search" xmlns="http://www.w3.org/2000/svg" height="100%" width="100%" viewBox="0 -960 960 960">
    <path
      d="M784-120 532-372q-30 24-69 38t-83 14q-109 0-184.5-75.5T120-580q0-109 75.5-184.5T380-840q109 0 184.5 75.5T640-580q0 44-14 83t-38 69l252 252-56 56ZM380-400q75 0 127.5-52.5T560-580q0-75-52.5-127.5T380-760q-75 0-127.5 52.5T200-580q0 75 52.5 127.5T380-400Z" />
  </symbol>

  <symbol id="arrow-back" xmlns="http://www.w3.org/2000/svg" height="100%" width="100%" viewBox="0 -960 960 960">
    <path
      d="m313-440 196 196q12 12 11.5 28T508-188q-12 11-28 11.5T452-188L188-452q-6-6-8.5-13t-2.5-15q0-8 2.5-15t8.5-13l264-264q11-11 27.5-11t28.5 11q12 12 12 28.5T508-715L313-520h447q17 0 28.5 11.5T800-480q0 17-11.5 28.5T760-440H313Z" />
  </symbol>

  <symbol id="calendar_clock" height="100%" width="100%" viewBox="0 0 32 32" fill="none"
    xmlns="http://www.w3.org/2000/svg">
    <g>
      <mask id="mask0_57_683" style="mask-type:alpha" maskUnits="userSpaceOnUse" x="0" y="0" width="32" height="32">
        <rect id="Bounding box" width="32" height="32" fill="#D9D9D9" />
      </mask>
      <g mask="url(#mask0_57_683)">
        <path id="calendar_clock_2"
          d="M6.66667 10.6665H25.3333V7.99984H6.66667V10.6665ZM6.66667 29.3332C5.93333 29.3332 5.30556 29.0721 4.78333 28.5498C4.26111 28.0276 4 27.3998 4 26.6665V7.99984C4 7.2665 4.26111 6.63873 4.78333 6.1165C5.30556 5.59428 5.93333 5.33317 6.66667 5.33317H8V2.6665H10.6667V5.33317H21.3333V2.6665H24V5.33317H25.3333C26.0667 5.33317 26.6944 5.59428 27.2167 6.1165C27.7389 6.63873 28 7.2665 28 7.99984V15.5665C27.5778 15.3665 27.1444 15.1998 26.7 15.0665C26.2556 14.9332 25.8 14.8332 25.3333 14.7665V13.3332H6.66667V26.6665H15.0667C15.2222 27.1554 15.4056 27.6221 15.6167 28.0665C15.8278 28.511 16.0778 28.9332 16.3667 29.3332H6.66667ZM24 30.6665C22.1556 30.6665 20.5833 30.0165 19.2833 28.7165C17.9833 27.4165 17.3333 25.8443 17.3333 23.9998C17.3333 22.1554 17.9833 20.5832 19.2833 19.2832C20.5833 17.9832 22.1556 17.3332 24 17.3332C25.8444 17.3332 27.4167 17.9832 28.7167 19.2832C30.0167 20.5832 30.6667 22.1554 30.6667 23.9998C30.6667 25.8443 30.0167 27.4165 28.7167 28.7165C27.4167 30.0165 25.8444 30.6665 24 30.6665ZM26.2333 27.1665L27.1667 26.2332L24.6667 23.7332V19.9998H23.3333V24.2665L26.2333 27.1665Z"
          fill="currentColor" />
      </g>
    </g>
  </symbol>

  <symbol id="mail" height="100%" width="100%" viewBox="0 0 32 32" fill="none" xmlns="http://www.w3.org/2000/svg">
    <g>
      <mask id="mask0_57_630" style="mask-type:alpha" maskUnits="userSpaceOnUse" x="0" y="0" width="32" height="32">
        <rect id="Bounding box" width="32" height="32" fill="#D9D9D9" />
      </mask>
      <g mask="url(#mask0_57_630)">
        <path id="mail_2"
          d="M5.33317 26.6668C4.59984 26.6668 3.97206 26.4057 3.44984 25.8835C2.92762 25.3613 2.6665 24.7335 2.6665 24.0002V8.00016C2.6665 7.26683 2.92762 6.63905 3.44984 6.11683C3.97206 5.59461 4.59984 5.3335 5.33317 5.3335H26.6665C27.3998 5.3335 28.0276 5.59461 28.5498 6.11683C29.0721 6.63905 29.3332 7.26683 29.3332 8.00016V24.0002C29.3332 24.7335 29.0721 25.3613 28.5498 25.8835C28.0276 26.4057 27.3998 26.6668 26.6665 26.6668H5.33317ZM15.9998 17.3335L5.33317 10.6668V24.0002H26.6665V10.6668L15.9998 17.3335ZM15.9998 14.6668L26.6665 8.00016H5.33317L15.9998 14.6668ZM5.33317 10.6668V8.00016V24.0002V10.6668Z"
          fill="currentColor" />
      </g>
    </g>
  </symbol>

  <symbol id="call" height="100%" width="100%" viewBox="0 0 32 32" fill="none" xmlns="http://www.w3.org/2000/svg">
    <g>
      <mask id="mask0_57_671" style="mask-type:alpha" maskUnits="userSpaceOnUse" x="0" y="0" width="32" height="32">
        <rect id="Bounding box" width="32" height="32" fill="#D9D9D9" />
      </mask>
      <g mask="url(#mask0_57_671)">
        <path id="call_2"
          d="M26.6 28C23.8222 28 21.0778 27.3944 18.3667 26.1833C15.6556 24.9722 13.1889 23.2556 10.9667 21.0333C8.74444 18.8111 7.02778 16.3444 5.81667 13.6333C4.60556 10.9222 4 8.17778 4 5.4C4 5 4.13333 4.66667 4.4 4.4C4.66667 4.13333 5 4 5.4 4H10.8C11.1111 4 11.3889 4.10556 11.6333 4.31667C11.8778 4.52778 12.0222 4.77778 12.0667 5.06667L12.9333 9.73333C12.9778 10.0889 12.9667 10.3889 12.9 10.6333C12.8333 10.8778 12.7111 11.0889 12.5333 11.2667L9.3 14.5333C9.74444 15.3556 10.2722 16.15 10.8833 16.9167C11.4944 17.6833 12.1667 18.4222 12.9 19.1333C13.5889 19.8222 14.3111 20.4611 15.0667 21.05C15.8222 21.6389 16.6222 22.1778 17.4667 22.6667L20.6 19.5333C20.8 19.3333 21.0611 19.1833 21.3833 19.0833C21.7056 18.9833 22.0222 18.9556 22.3333 19L26.9333 19.9333C27.2444 20.0222 27.5 20.1833 27.7 20.4167C27.9 20.65 28 20.9111 28 21.2V26.6C28 27 27.8667 27.3333 27.6 27.6C27.3333 27.8667 27 28 26.6 28ZM8.03333 12L10.2333 9.8L9.66667 6.66667H6.7C6.81111 7.57778 6.96667 8.47778 7.16667 9.36667C7.36667 10.2556 7.65556 11.1333 8.03333 12ZM19.9667 23.9333C20.8333 24.3111 21.7167 24.6111 22.6167 24.8333C23.5167 25.0556 24.4222 25.2 25.3333 25.2667V22.3333L22.2 21.7L19.9667 23.9333Z"
          fill="currentColor" />
      </g>
    </g>
  </symbol>

  <symbol id="smartphone" height="100%" width="100%" viewBox="0 0 32 32" fill="currentColor"
    xmlns="http://www.w3.org/2000/svg">
    <g>
      <mask id="mask0_57_677" style="mask-type:alpha" maskUnits="userSpaceOnUse" x="0" y="0" width="32" height="32">
        <rect id="Bounding box" width="32" height="32" fill="#D9D9D9" />
      </mask>
      <g mask="url(#mask0_57_677)">
        <path id="smartphone_2"
          d="M9.33317 30.6668C8.59984 30.6668 7.97206 30.4057 7.44984 29.8835C6.92762 29.3613 6.6665 28.7335 6.6665 28.0002V4.00016C6.6665 3.26683 6.92762 2.63905 7.44984 2.11683C7.97206 1.59461 8.59984 1.3335 9.33317 1.3335H22.6665C23.3998 1.3335 24.0276 1.59461 24.5498 2.11683C25.0721 2.63905 25.3332 3.26683 25.3332 4.00016V28.0002C25.3332 28.7335 25.0721 29.3613 24.5498 29.8835C24.0276 30.4057 23.3998 30.6668 22.6665 30.6668H9.33317ZM9.33317 26.6668V28.0002H22.6665V26.6668H9.33317ZM9.33317 24.0002H22.6665V8.00016H9.33317V24.0002ZM9.33317 5.3335H22.6665V4.00016H9.33317V5.3335Z"
          fill="currentColor" />
      </g>
    </g>
  </symbol>

  <symbol id="tag" height="100%" width="100%" viewBox="0 0 32 32" fill="none" xmlns="http://www.w3.org/2000/svg">
    <g>
      <mask id="mask0_58_695" style="mask-type:alpha" maskUnits="userSpaceOnUse" x="0" y="0" width="32" height="32">
        <rect id="Bounding box" width="32" height="32" fill="#D9D9D9" />
      </mask>
      <g mask="url(#mask0_58_695)">
        <path id="tag_2"
          d="M8 26.6668L9.33333 21.3335H4L4.66667 18.6668H10L11.3333 13.3335H6L6.66667 10.6668H12L13.3333 5.3335H16L14.6667 10.6668H20L21.3333 5.3335H24L22.6667 10.6668H28L27.3333 13.3335H22L20.6667 18.6668H26L25.3333 21.3335H20L18.6667 26.6668H16L17.3333 21.3335H12L10.6667 26.6668H8ZM12.6667 18.6668H18L19.3333 13.3335H14L12.6667 18.6668Z"
          fill="currentColor" />
      </g>
    </g>
  </symbol>

  <symbol id="contract" height="100%" width="100%" viewBox="0 0 32 32" fill="none" xmlns="http://www.w3.org/2000/svg">
    <g>
      <mask id="mask0_58_700" style="mask-type:alpha" maskUnits="userSpaceOnUse" x="0" y="0" width="32" height="32">
        <rect id="Bounding box" width="32" height="32" fill="#D9D9D9" />
      </mask>
      <g mask="url(#mask0_58_700)">
        <path id="contract_2"
          d="M8 29.3332C6.88889 29.3332 5.94444 28.9443 5.16667 28.1665C4.38889 27.3887 4 26.4443 4 25.3332V21.3332H8V2.6665H28V25.3332C28 26.4443 27.6111 27.3887 26.8333 28.1665C26.0556 28.9443 25.1111 29.3332 24 29.3332H8ZM24 26.6665C24.3778 26.6665 24.6944 26.5387 24.95 26.2832C25.2056 26.0276 25.3333 25.7109 25.3333 25.3332V5.33317H10.6667V21.3332H22.6667V25.3332C22.6667 25.7109 22.7944 26.0276 23.05 26.2832C23.3056 26.5387 23.6222 26.6665 24 26.6665ZM12 11.9998V9.33317H24V11.9998H12ZM12 15.9998V13.3332H24V15.9998H12ZM8 26.6665H20V23.9998H6.66667V25.3332C6.66667 25.7109 6.79444 26.0276 7.05 26.2832C7.30556 26.5387 7.62222 26.6665 8 26.6665ZM8 26.6665H6.66667H20H8Z"
          fill="currentColor" />
      </g>
    </g>
  </symbol>

  <symbol id="check" height="100%" width="100%" viewBox="0 0 32 32" fill="none" xmlns="http://www.w3.org/2000/svg">
    <g>
      <mask id="mask0_67_277" style="mask-type:alpha" maskUnits="userSpaceOnUse" x="0" y="0" width="32" height="32">
        <rect id="Bounding box" width="32" height="32" fill="#D9D9D9" />
      </mask>
      <g mask="url(#mask0_67_277)">
        <path id="check_2"
          d="M12.7333 20.2L24.0333 8.9C24.2999 8.63333 24.6166 8.5 24.9833 8.5C25.35 8.5 25.6666 8.63333 25.9333 8.9C26.1999 9.16667 26.3333 9.48333 26.3333 9.85C26.3333 10.2167 26.1999 10.5333 25.9333 10.8L13.6666 23.0667C13.4 23.3333 13.0888 23.4667 12.7333 23.4667C12.3777 23.4667 12.0666 23.3333 11.8 23.0667L6.06662 17.3333C5.79995 17.0667 5.67217 16.75 5.68328 16.3833C5.69439 16.0167 5.83328 15.7 6.09995 15.4333C6.36662 15.1667 6.68328 15.0333 7.04995 15.0333C7.41662 15.0333 7.73328 15.1667 7.99995 15.4333L12.7333 20.2Z"
          fill="#22C55E" />
      </g>
    </g>
  </symbol>

  <symbol id="close" height="100%" width="100%" viewBox="0 0 32 32" fill="none" xmlns="http://www.w3.org/2000/svg">
    <g>
      <mask id="mask0_67_310" style="mask-type:alpha" maskUnits="userSpaceOnUse" x="0" y="0" width="32" height="32">
        <rect id="Bounding box" width="32" height="32" fill="#D9D9D9" />
      </mask>
      <g mask="url(#mask0_67_310)">
        <path id="close_2"
          d="M15.9996 17.8667L9.46624 24.4001C9.2218 24.6445 8.91069 24.7667 8.53291 24.7667C8.15513 24.7667 7.84402 24.6445 7.59958 24.4001C7.35513 24.1556 7.23291 23.8445 7.23291 23.4667C7.23291 23.089 7.35513 22.7778 7.59958 22.5334L14.1329 16.0001L7.59958 9.46673C7.35513 9.22229 7.23291 8.91118 7.23291 8.5334C7.23291 8.15562 7.35513 7.84451 7.59958 7.60007C7.84402 7.35562 8.15513 7.2334 8.53291 7.2334C8.91069 7.2334 9.2218 7.35562 9.46624 7.60007L15.9996 14.1334L22.5329 7.60007C22.7774 7.35562 23.0885 7.2334 23.4662 7.2334C23.844 7.2334 24.1551 7.35562 24.3996 7.60007C24.644 7.84451 24.7662 8.15562 24.7662 8.5334C24.7662 8.91118 24.644 9.22229 24.3996 9.46673L17.8662 16.0001L24.3996 22.5334C24.644 22.7778 24.7662 23.089 24.7662 23.4667C24.7662 23.8445 24.644 24.1556 24.3996 24.4001C24.1551 24.6445 23.844 24.7667 23.4662 24.7667C23.0885 24.7667 22.7774 24.6445 22.5329 24.4001L15.9996 17.8667Z"
          fill="#EF4444" />
      </g>
    </g>
  </symbol>

  <symbol id="bars" xmlns="http://www.w3.org/2000/svg" height="100%" width="100%" viewBox="0 -960 960 960">
    <path
      d="M160-240q-17 0-28.5-11.5T120-280q0-17 11.5-28.5T160-320h640q17 0 28.5 11.5T840-280q0 17-11.5 28.5T800-240H160Zm0-200q-17 0-28.5-11.5T120-480q0-17 11.5-28.5T160-520h640q17 0 28.5 11.5T840-480q0 17-11.5 28.5T800-440H160Zm0-200q-17 0-28.5-11.5T120-680q0-17 11.5-28.5T160-720h640q17 0 28.5 11.5T840-680q0 17-11.5 28.5T800-640H160Z" />
  </symbol>

  <symbol id="arrow-left" xmlns="http://www.w3.org/2000/svg" height="100%" width="100%" viewBox="0 -960 960 960">
    <path d="M400-240 160-480l240-240 56 58-142 142h486v80H314l142 142-56 58Z" />
  </symbol>

  <symbol id="arrow-right" xmlns="http://www.w3.org/2000/svg" height="100%" width="100%" viewBox="0 -960 960 960">
    <path d="m560-240-56-58 142-142H160v-80h486L504-662l56-58 240 240-240 240Z" />
  </symbol>

  <symbol id="subject" xmlns="http://www.w3.org/2000/svg" height="100%" width="100%" viewBox="0 -960 960 960">
    <path d="M160-200v-80h400v80H160Zm0-160v-80h640v80H160Zm0-160v-80h640v80H160Zm0-160v-80h640v80H160Z" />
  </symbol>

  <symbol id="module" xmlns="http://www.w3.org/2000/svg" height="100%" width="100%" viewBox="0 -960 960 960">
    <path
      d="M627-520h133v-160H627v160Zm-214 0h133v-160H413v160Zm-213 0h133v-160H200v160Zm0 240h133v-160H200v160Zm213 0h133v-160H413v160Zm214 0h133v-160H627v160Zm-507 0v-400q0-33 23.5-56.5T200-760h560q33 0 56.5 23.5T840-680v400q0 33-23.5 56.5T760-200H200q-33 0-56.5-23.5T120-280Z" />
  </symbol>

  <symbol id="team-dashboard" xmlns="http://www.w3.org/2000/svg" height="100%" width="100%" viewBox="0 -960 960 960">
    <path
      d="M200-120q-33 0-56.5-23.5T120-200v-560q0-33 23.5-56.5T200-840h560q33 0 56.5 23.5T840-760v560q0 33-23.5 56.5T760-120H200Zm200-80v-240H200v240h200Zm80 0h280v-240H480v240ZM200-520h560v-240H200v240Z" />
  </symbol>

  <symbol id="school" xmlns="http://www.w3.org/2000/svg" height="100%" width="100%" viewBox="0 -960 960 960">
    <path
      d="M480-120 200-272v-240L40-600l440-240 440 240v320h-80v-276l-80 44v240L480-120Zm0-332 274-148-274-148-274 148 274 148Zm0 241 200-108v-151L480-360 280-470v151l200 108Zm0-241Zm0 90Zm0 0Z" />
  </symbol>

  <symbol id="star" xmlns="http://www.w3.org/2000/svg" height="100%" width="100%" viewBox="0 -960 960 960">
    <path
      d="m354-287 126-76 126 77-33-144 111-96-146-13-58-136-58 135-146 13 111 97-33 143ZM233-120l65-281L80-590l288-25 112-265 112 265 288 25-218 189 65 281-247-149-247 149Zm247-350Z" />
  </symbol>
</svg>