<svg>

  <symbol id="list" xmlns="http://www.w3.org/2000/svg" height="100%" width="100%" viewBox="0 -960 960 960">
    <path
      d="M320-600q-17 0-28.5-11.5T280-640q0-17 11.5-28.5T320-680h480q17 0 28.5 11.5T840-640q0 17-11.5 28.5T800-600H320Zm0 160q-17 0-28.5-11.5T280-480q0-17 11.5-28.5T320-520h480q17 0 28.5 11.5T840-480q0 17-11.5 28.5T800-440H320Zm0 160q-17 0-28.5-11.5T280-320q0-17 11.5-28.5T320-360h480q17 0 28.5 11.5T840-320q0 17-11.5 28.5T800-280H320ZM160-600q-17 0-28.5-11.5T120-640q0-17 11.5-28.5T160-680q17 0 28.5 11.5T200-640q0 17-11.5 28.5T160-600Zm0 160q-17 0-28.5-11.5T120-480q0-17 11.5-28.5T160-520q17 0 28.5 11.5T200-480q0 17-11.5 28.5T160-440Zm0 160q-17 0-28.5-11.5T120-320q0-17 11.5-28.5T160-360q17 0 28.5 11.5T200-320q0 17-11.5 28.5T160-280Z" />
  </symbol>

  <symbol id="logout" xmlns="http://www.w3.org/2000/svg" height="100%" width="100%" viewBox="0 -960 960 960">
    <path
      d="M200-120q-33 0-56.5-23.5T120-200v-560q0-33 23.5-56.5T200-840h240q17 0 28.5 11.5T480-800q0 17-11.5 28.5T440-760H200v560h240q17 0 28.5 11.5T480-160q0 17-11.5 28.5T440-120H200Zm487-320H400q-17 0-28.5-11.5T360-480q0-17 11.5-28.5T400-520h287l-75-75q-11-11-11-27t11-28q11-12 28-12.5t29 11.5l143 143q12 12 12 28t-12 28L669-309q-12 12-28.5 11.5T612-310q-11-12-10.5-28.5T613-366l74-74Z" />
  </symbol>

  <symbol id="add" xmlns="http://www.w3.org/2000/svg" height="100%" width="100%" viewBox="0 -960 960 960">
    <path
      d="M440-440H240q-17 0-28.5-11.5T200-480q0-17 11.5-28.5T240-520h200v-200q0-17 11.5-28.5T480-760q17 0 28.5 11.5T520-720v200h200q17 0 28.5 11.5T760-480q0 17-11.5 28.5T720-440H520v200q0 17-11.5 28.5T480-200q-17 0-28.5-11.5T440-240v-200Z" />
  </symbol>

  <symbol id="edit" xmlns="http://www.w3.org/2000/svg" height="100%" width="100%" viewBox="0 -960 960 960">
    <path
      d="M200-200h57l391-391-57-57-391 391v57Zm-40 80q-17 0-28.5-11.5T120-160v-97q0-16 6-30.5t17-25.5l505-504q12-11 26.5-17t30.5-6q16 0 31 6t26 18l55 56q12 11 17.5 26t5.5 30q0 16-5.5 30.5T817-647L313-143q-11 11-25.5 17t-30.5 6h-97Zm600-584-56-56 56 56Zm-141 85-28-29 57 57-29-28Z" />
  </symbol>

  <symbol id="delete" xmlns="http://www.w3.org/2000/svg" height="100%" width="100%" viewBox="0 -960 960 960">
    <path
      d="M280-120q-33 0-56.5-23.5T200-200v-520q-17 0-28.5-11.5T160-760q0-17 11.5-28.5T200-800h160q0-17 11.5-28.5T400-840h160q17 0 28.5 11.5T600-800h160q17 0 28.5 11.5T800-760q0 17-11.5 28.5T760-720v520q0 33-23.5 56.5T680-120H280Zm400-600H280v520h400v-520ZM400-280q17 0 28.5-11.5T440-320v-280q0-17-11.5-28.5T400-640q-17 0-28.5 11.5T360-600v280q0 17 11.5 28.5T400-280Zm160 0q17 0 28.5-11.5T600-320v-280q0-17-11.5-28.5T560-640q-17 0-28.5 11.5T520-600v280q0 17 11.5 28.5T560-280ZM280-720v520-520Z" />
  </symbol>

  <symbol id="settings" xmlns="http://www.w3.org/2000/svg" height="100%" width="100%" viewBox="0 -960 960 960">
    <path
      d="M405-80q-15 0-26-10t-13-25l-12-93q-13-5-24.5-12T307-235l-87 36q-14 6-28 1.5T170-215L96-344q-8-13-5-28t15-24l75-57q-1-7-1-13.5v-27q0-6.5 1-13.5l-75-57q-12-9-15-24t5-28l74-129q8-13 22-17.5t28 1.5l87 36q11-8 23-15t24-12l12-93q2-15 13-25t26-10h150q15 0 26 10t13 25l12 93q13 5 24.5 12t22.5 15l87-36q14-6 28-1.5t22 17.5l74 129q8 13 5 28t-15 24l-75 57q1 7 1 13.5v27q0 6.5-2 13.5l75 57q12 9 15 24t-5 28l-74 128q-8 13-22.5 18t-28.5-1l-85-36q-11 8-23 15t-24 12l-12 93q-2 15-13 25t-26 10H405Zm35-80h79l14-106q31-8 57.5-23.5T639-327l99 41 39-68-86-65q5-14 7-29.5t2-31.5q0-16-2-31.5t-7-29.5l86-65-39-68-99 42q-22-23-48.5-38.5T533-694l-13-106h-79l-14 106q-31 8-57.5 23.5T321-633l-99-41-39 68 86 64q-5 15-7 30t-2 32q0 16 2 31t7 30l-86 65 39 68 99-42q22 23 48.5 38.5T427-266l13 106Zm42-180q58 0 99-41t41-99q0-58-41-99t-99-41q-59 0-99.5 41T342-480q0 58 40.5 99t99.5 41Zm-2-140Z" />
  </symbol>

  <symbol id="user" xmlns="http://www.w3.org/2000/svg" height="100%" width="100%" viewBox="0 -960 960 960">
    <path
      d="M234-276q51-39 114-61.5T480-360q69 0 132 22.5T726-276q35-41 54.5-93T800-480q0-133-93.5-226.5T480-800q-133 0-226.5 93.5T160-480q0 59 19.5 111t54.5 93Zm246-164q-59 0-99.5-40.5T340-580q0-59 40.5-99.5T480-720q59 0 99.5 40.5T620-580q0 59-40.5 99.5T480-440Zm0 360q-83 0-156-31.5T197-197q-54-54-85.5-127T80-480q0-83 31.5-156T197-763q54-54 127-85.5T480-880q83 0 156 31.5T763-763q54 54 85.5 127T880-480q0 83-31.5 156T763-197q-54 54-127 85.5T480-80Zm0-80q53 0 100-15.5t86-44.5q-39-29-86-44.5T480-280q-53 0-100 15.5T294-220q39 29 86 44.5T480-160Zm0-360q26 0 43-17t17-43q0-26-17-43t-43-17q-26 0-43 17t-17 43q0 26 17 43t43 17Zm0-60Zm0 360Z" />
  </symbol>

  <symbol id="note" xmlns="http://www.w3.org/2000/svg" height="100%" width="100%" viewBox="0 -960 960 960">
    <path
      d="M240-80q-33 0-56.5-23.5T160-160v-640q0-33 23.5-56.5T240-880h287q16 0 30.5 6t25.5 17l194 194q11 11 17 25.5t6 30.5v447q0 33-23.5 56.5T720-80H240Zm280-560v-160H240v640h480v-440H560q-17 0-28.5-11.5T520-640ZM240-800v200-200 640-640Z" />
  </symbol>

  <symbol id="description" xmlns="http://www.w3.org/2000/svg" height="100%" width="100%" viewBox="0 -960 960 960">
    <path
      d="M360-240h240q17 0 28.5-11.5T640-280q0-17-11.5-28.5T600-320H360q-17 0-28.5 11.5T320-280q0 17 11.5 28.5T360-240Zm0-160h240q17 0 28.5-11.5T640-440q0-17-11.5-28.5T600-480H360q-17 0-28.5 11.5T320-440q0 17 11.5 28.5T360-400ZM240-80q-33 0-56.5-23.5T160-160v-640q0-33 23.5-56.5T240-880h287q16 0 30.5 6t25.5 17l194 194q11 11 17 25.5t6 30.5v447q0 33-23.5 56.5T720-80H240Zm280-560v-160H240v640h480v-440H560q-17 0-28.5-11.5T520-640ZM240-800v200-200 640-640Z" />
  </symbol>

  <symbol id="assists" xmlns="http://www.w3.org/2000/svg" height="100%" width="100%" viewBox="0 -960 960 960">
    <path
      d="m438-342 139-139q12-12 29-12t29 12q12 12 12 29t-12 29L466-254q-12 12-28 12t-28-12l-85-85q-12-12-12-29t12-29q12-12 29-12t29 12l55 55ZM200-80q-33 0-56.5-23.5T120-160v-560q0-33 23.5-56.5T200-800h40v-40q0-17 11.5-28.5T280-880q17 0 28.5 11.5T320-840v40h320v-40q0-17 11.5-28.5T680-880q17 0 28.5 11.5T720-840v40h40q33 0 56.5 23.5T840-720v560q0 33-23.5 56.5T760-80H200Zm0-80h560v-400H200v400Zm0-480h560v-80H200v80Zm0 0v-80 80Z" />
  </symbol>

  <symbol id="home" xmlns="http://www.w3.org/2000/svg" height="100%" width="100%" viewBox="0 -960 960 960">
    <path
      d="M240-200h120v-200q0-17 11.5-28.5T400-440h160q17 0 28.5 11.5T600-400v200h120v-360L480-740 240-560v360Zm-80 0v-360q0-19 8.5-36t23.5-28l240-180q21-16 48-16t48 16l240 180q15 11 23.5 28t8.5 36v360q0 33-23.5 56.5T720-120H560q-17 0-28.5-11.5T520-160v-200h-80v200q0 17-11.5 28.5T400-120H240q-33 0-56.5-23.5T160-200Zm320-270Z" />
  </symbol>

</svg>